{"title":"Devdas - 1955 - with Eng sub","uid":5334689,"size":1195656403,"categoryP":"video","categoryS":"movies","magnet":"?xt=urn:btih:8ef9ccc6008593408cd527287deb31e941871712&amp;dn=Devdas+-+1955+-+with+Eng+sub&amp;tr=udp%3A%2F%2Ftracker.openbittorrent.com%3A80&amp;tr=udp%3A%2F%2Fopen.demonii.com%3A1337&amp;tr=udp%3A%2F%2Ftracker.coppersurfer.tk%3A6969&amp;tr=udp%3A%2F%2Fexodus.desync.com%3A6969","seeders":1,"leechers":1,"uploader":"Ani1982","files":2,"time":1265281557,"description":"General\nComplete name                    : Devdas - 1955 - Dilip Kumar , Suchitra Sen , VaijantimalaDevdas (Bimal Roy, 1955).avi\nFormat                           : AVI\nFormat/Info                      : Audio Video Interleave\nFile size                        : 1.11 GiB\nDuration                         : 2h 42mn\nOverall bit rate                 : 984 Kbps\nWriting library                  : VirtualDub build 24442/release\n\nVideo\nID                               : 0\nFormat                           : MPEG-4 Visual\nFormat profile                   : AdvancedSimple@L4\nFormat settings, BVOP            : Yes\nFormat settings, QPel            : No\nFormat settings, GMC             : No warppoints\nFormat settings, Matrix          : Default (H.263)\nMuxing mode                      : Packed bitstream\nCodec ID                         : XVID\nCodec ID/Hint                    : XviD\nDuration                         : 2h 42mn\nBit rate                         : 844 Kbps\nWidth                            : 640 pixels\nHeight                           : 480 pixels\nDisplay aspect ratio             : 4:3\nFrame rate                       : 29.970 fps\nResolution                       : 24 bits\nColorimetry                      : 4:2:0\nScan type                        : Progressive\nBits/(Pixel*Frame)               : 0.092\nStream size                      : 978 MiB (86%)\nWriting library                  : XviD 1.2.0SMP (UTC 2006-01-08)\n\nAudio\nID                               : 1\nFormat                           : MPEG Audio\nFormat version                   : Version 1\nFormat profile                   : Layer 3\nFormat_Settings_Mode             : Joint stereo\nCodec ID                         : 55\nCodec ID/Hint                    : MP3\nDuration                         : 2h 42mn\nBit rate mode                    : Constant\nBit rate                         : 128 Kbps\nChannel(s)                       : 2 channels\nSampling rate                    : 48.0 KHz\nResolution                       : 16 bits\nStream size                      : 148 MiB (13%)\nAlignment                        : Split accross interleaves\nInterleave, duration             : 33 ms (1.00 video frame)\nInterleave, preload duration     : 500 ms\n","torrent":{"xt":"urn:btih:8ef9ccc6008593408cd527287deb31e941871712","amp;dn":"Devdas+-+1955+-+with+Eng+sub","amp;tr":["udp%3A%2F%2Ftracker.openbittorrent.com%3A80","udp%3A%2F%2Fopen.demonii.com%3A1337","udp%3A%2F%2Ftracker.coppersurfer.tk%3A6969","udp%3A%2F%2Fexodus.desync.com%3A6969"],"infoHash":"8ef9ccc6008593408cd527287deb31e941871712","infoHashBuffer":{"type":"Buffer","data":[142,249,204,198,0,133,147,64,140,213,39,40,125,235,49,233,65,135,23,18]},"announce":[],"urlList":[]}}